<?xml version="1.0" encoding="UTF-8"?>
<svg version="1.1" xmlns="http://www.w3.org/2000/svg" width="286" height="280">
<path d="M0 0 C94.38 0 188.76 0 286 0 C286 92.4 286 184.8 286 280 C191.62 280 97.24 280 0 280 C0 187.6 0 95.2 0 0 Z " fill="#FCFDFE" transform="translate(0,0)"/>
<path d="M0 0 C7.82373857 6.06645354 14.31660158 16.68378917 15.82421875 26.546875 C15.88222656 27.24941406 15.94023437 27.95195313 16 28.67578125 C16.06832031 29.45050781 16.13664062 30.22523437 16.20703125 31.0234375 C16.77899301 44.39039562 11.8135801 56.1321163 2.89453125 65.88671875 C-6.77197463 75.01508925 -18.04766885 76.08712617 -30.796875 75.88671875 C-42.08706663 75.48027185 -50.64889542 70.48018592 -58.3125 62.36328125 C-67.45832879 51.57776204 -67.79744545 39.75003063 -67.22216797 26.20117188 C-66.3387824 16.15969901 -60.17890144 7.08171233 -52.64453125 0.671875 C-37.20577098 -10.7934989 -16.00947611 -10.60002422 0 0 Z " fill="#0456A4" transform="translate(236,79.32421875)"/>
<path d="M0 0 C0.92901123 0.00322266 1.85802246 0.00644531 2.81518555 0.00976562 C9.37790193 0.14354563 14.9706632 0.98582495 20.6875 4.4375 C21.0175 3.1175 21.3475 1.7975 21.6875 0.4375 C28.9475 0.4375 36.2075 0.4375 43.6875 0.4375 C43.6875 8.3575 43.6875 16.2775 43.6875 24.4375 C38.3353125 24.5921875 38.3353125 24.5921875 32.875 24.75 C31.19313599 24.81828003 31.19313599 24.81828003 29.47729492 24.88793945 C26.8042735 24.92562188 24.32281649 24.90157035 21.6875 24.4375 C19.58203125 22.02734375 19.58203125 22.02734375 18.6875 19.4375 C16.62282144 17.02870835 15.79755341 16.47418447 12.6875 15.4375 C11.12631572 15.37009135 9.5624748 15.35235544 8 15.375 C7.19175781 15.38402344 6.38351563 15.39304687 5.55078125 15.40234375 C4.93589844 15.41394531 4.32101563 15.42554687 3.6875 15.4375 C3.0275 17.7475 2.3675 20.0575 1.6875 22.4375 C2.40591064 22.72270508 3.12432129 23.00791016 3.86450195 23.30175781 C8.56504712 25.19287051 13.21860383 27.19062813 17.875 29.1875 C19.3609668 29.81398438 19.3609668 29.81398438 20.87695312 30.453125 C30.80205725 34.72254684 40.09809075 38.76431572 45.6875 48.4375 C47.70872281 54.50116844 47.53536409 61.74428466 45.625 67.8125 C40.32243526 74.99661997 35.26906191 78.76384754 26.6875 81.4375 C26.08292969 81.62828125 25.47835937 81.8190625 24.85546875 82.015625 C14.03320566 84.1215789 4.39504376 82.55999281 -5.3125 77.4375 C-5.9725 77.1075 -6.6325 76.7775 -7.3125 76.4375 C-7.3125 78.0875 -7.3125 79.7375 -7.3125 81.4375 C-14.2425 81.4375 -21.1725 81.4375 -28.3125 81.4375 C-28.3125 72.8575 -28.3125 64.2775 -28.3125 55.4375 C-21.0525 55.4375 -13.7925 55.4375 -6.3125 55.4375 C-4.9925 57.7475 -3.6725 60.0575 -2.3125 62.4375 C2.06937412 64.95302033 5.64686815 66.01029907 10.6875 65.4375 C13.88747155 63.7966054 13.88747155 63.7966054 14.25 61.0625 C13.93124271 58.20562493 13.93124271 58.20562493 11.234375 56.51953125 C7.18580608 53.97262859 2.80407534 52.26812889 -1.625 50.5 C-12.91426733 45.98248244 -21.33165795 41.90876308 -28.1875 31.625 C-30.24461722 25.79650121 -30.30992271 19.96632309 -27.8125 14.25 C-21.61845877 3.43778669 -11.8227734 -0.12663865 0 0 Z " fill="#0556A3" transform="translate(117.3125,72.5625)"/>
<path d="M0 0 C15.18 0 30.36 0 46 0 C46 6.6 46 13.2 46 20 C43.36 20 40.72 20 38 20 C38 33.86 38 47.72 38 62 C40.31 62 42.62 62 45 62 C45 68.27 45 74.54 45 81 C30.15 81 15.3 81 0 81 C0 74.4 0 67.8 0 61 C2.31 61 4.62 61 7 61 C7 47.47 7 33.94 7 20 C4.69 20 2.38 20 0 20 C0 13.4 0 6.8 0 0 Z " fill="#0757A4" transform="translate(34,73)"/>
<path d="M0 0 C1.9375 0.3125 1.9375 0.3125 4 1 C4.33 1.99 4.66 2.98 5 4 C14.9 3.505 14.9 3.505 25 3 C25 2.01 25 1.02 25 0 C26.32 0 27.64 0 29 0 C29 0.99 29 1.98 29 3 C30.85625 2.938125 30.85625 2.938125 32.75 2.875 C38.61618748 2.85628808 44.25262878 3.91081967 50 5 C50.33 3.35 50.66 1.7 51 0 C52.32 0 53.64 0 55 0 C54.34 2.31 53.68 4.62 53 7 C53.94875 7.0825 54.8975 7.165 55.875 7.25 C60.88977467 7.93991766 65.38454926 10.00337644 70 12 C70.28101563 11.42765625 70.56203125 10.8553125 70.8515625 10.265625 C71.97198782 8.05526213 73.1292948 5.89229556 74.375 3.75 C74.77460938 3.04359375 75.17421875 2.3371875 75.5859375 1.609375 C76.05257812 1.07828125 76.51921875 0.5471875 77 0 C78.32 0 79.64 0 81 0 C79.63611314 4.09166058 77.5935864 7.02995722 74.92578125 10.3515625 C74.62027344 10.89554688 74.31476563 11.43953125 74 12 C75.33332095 15.99996286 77.4957827 16.83782337 81 19 C89.2253093 15.37065067 94.79281675 7.02969739 100 0 C101.32 0.33 102.64 0.66 104 1 C88.22357187 23.46945825 68.53651277 38.34184653 41.0234375 43.3125 C30.45780611 44.93989784 15.01316883 46.36788435 5 42 C3.6640625 40.14453125 3.6640625 40.14453125 3 38 C4.24129279 33.57789444 5.14013398 31.54399687 9.0625 29.0625 C12 28 12 28 14 28 C13.37351562 27.10796875 12.74703125 26.2159375 12.1015625 25.296875 C11.27590274 24.11468035 10.45038961 22.93238328 9.625 21.75 C9.2125 21.16347656 8.8 20.57695312 8.375 19.97265625 C6.35295912 17.07004918 4.45533455 14.23052285 3 11 C-0.42322452 11.4027323 -3.44337757 11.76144753 -6.625 13.125 C-9.48899614 14.18015647 -11.10751562 13.82642411 -14 13 C-14 12.34 -14 11.68 -14 11 C-12.06441401 10.32779649 -10.12645628 9.66241923 -8.1875 9 C-7.10855469 8.62875 -6.02960938 8.2575 -4.91796875 7.875 C-2 7 -2 7 1 7 C0.67 4.69 0.34 2.38 0 0 Z " fill="#1D5C98" transform="translate(112,160)"/>
<path d="M0 0 C0.495 0.99 0.495 0.99 1 2 C-2.33155251 3.66577625 -6.06536059 3.12007856 -9.7265625 3.09765625 C-11.02078629 3.09553383 -11.02078629 3.09553383 -12.34115601 3.09336853 C-15.1024723 3.08776188 -17.86370812 3.07520827 -20.625 3.0625 C-22.4947905 3.05748586 -24.36458226 3.0529228 -26.234375 3.04882812 C-30.82294777 3.03779029 -35.41146023 3.0205212 -40 3 C-32.76315336 10.45099344 -24.0204664 10.55086008 -14 11 C-14 11.66 -14 12.32 -14 13 C-15.98 13.33 -17.96 13.66 -20 14 C-20 19.94 -20 25.88 -20 32 C-14.06 31.34 -8.12 30.68 -2 30 C-2.495 28.515 -2.495 28.515 -3 27 C-2.34 27 -1.68 27 -1 27 C-0.505 25.515 -0.505 25.515 0 24 C0.99 25.98 0.99 25.98 2 28 C2.97839844 27.80083984 2.97839844 27.80083984 3.9765625 27.59765625 C8.6408287 26.65517178 13.29868454 25.74231297 18 25 C17.2575 24.278125 16.515 23.55625 15.75 22.8125 C13.28487172 20.29134608 10.99118285 17.91019033 9 15 C9.495 13.515 9.495 13.515 10 12 C10.67546875 12.66128906 11.3509375 13.32257812 12.046875 14.00390625 C12.93890625 14.84824219 13.8309375 15.69257812 14.75 16.5625 C15.63171875 17.40941406 16.5134375 18.25632812 17.421875 19.12890625 C19.76301774 21.25787623 19.76301774 21.25787623 22.15625 20.8125 C22.7646875 20.544375 23.373125 20.27625 24 20 C25.66519519 19.65939189 27.33157466 19.32441604 29 19 C29.495 17.515 29.495 17.515 30 16 C35.06004606 17.48214036 37.92724106 20.51112276 41.5 24.1875 C42.05558594 24.73986328 42.61117187 25.29222656 43.18359375 25.86132812 C53 35.80477022 53 35.80477022 53 40 C51.68 40 50.36 40 49 40 C47.25390625 38.20703125 47.25390625 38.20703125 45.5625 35.8125 C42.92664575 32.22121883 40.24295031 29.07226872 37 26 C35.33333333 24.33333333 33.66666667 22.66666667 32 21 C31.4225 21.309375 30.845 21.61875 30.25 21.9375 C28.15095893 22.92871384 26.24925862 23.47548801 24 24 C24.6496875 24.98742187 25.299375 25.97484375 25.96875 26.9921875 C26.81273833 28.28630293 27.65647535 29.58058229 28.5 30.875 C29.14388672 31.85146484 29.14388672 31.85146484 29.80078125 32.84765625 C33 37.7734375 33 37.7734375 33 40 C31.68 40 30.36 40 29 40 C27.18359375 37.62890625 27.18359375 37.62890625 25.4375 34.5625 C23.1751115 30.15829481 23.1751115 30.15829481 19 28 C16.09958135 28.76161904 16.09958135 28.76161904 13 29.9375 C7.29491525 32 7.29491525 32 4 32 C4.99 35.96 4.99 35.96 6 40 C4.68 40 3.36 40 2 40 C1.505 37.03 1.505 37.03 1 34 C0.40574219 34.0721875 -0.18851562 34.144375 -0.80078125 34.21875 C-7.22562641 34.93817279 -13.53847873 35.11055835 -20 35 C-20 36.65 -20 38.3 -20 40 C-21.32 40 -22.64 40 -24 40 C-24 38.35 -24 36.7 -24 35 C-24.85722656 35.01160156 -25.71445313 35.02320313 -26.59765625 35.03515625 C-32.50860552 35.0818041 -38.18156704 35.08249916 -44 34 C-44.66 35.98 -45.32 37.96 -46 40 C-46.99 40 -47.98 40 -49 40 C-48.47731534 37.23723823 -47.89130413 34.6739124 -47 32 C-48.7634375 31.8453125 -48.7634375 31.8453125 -50.5625 31.6875 C-53.59454008 31.32794834 -55.99471117 30.68391161 -58.75 29.375 C-61.71694053 27.85139139 -61.71694053 27.85139139 -63.984375 28.06640625 C-67.80439373 29.83575601 -69.23204354 34.08444132 -71.21875 37.62890625 C-72.10046875 38.80259766 -72.10046875 38.80259766 -73 40 C-74.32 40 -75.64 40 -77 40 C-75.56691865 36.04093183 -73.66858051 32.71281819 -71.375 29.1875 C-70.74335937 28.21167969 -70.11171875 27.23585938 -69.4609375 26.23046875 C-68.97882813 25.49441406 -68.49671875 24.75835937 -68 24 C-71.37097383 22.50178941 -73.20442119 22 -77 22 C-83.96688494 26.37108627 -89.0137544 33.61714394 -94 40 C-95.32 39.67 -96.64 39.34 -98 39 C-82.9908493 17.9283296 -63.30914131 3.22417342 -37.59179688 -1.62939453 C-25.78651379 -3.31745215 -11.536359 -3.36736965 0 0 Z " fill="#1E5C98" transform="translate(161,27)"/>
<path d="M0 0 C7.05523597 2.5765042 13.472219 6.66979708 19.88671875 10.5234375 C19.88671875 13.5234375 19.88671875 13.5234375 18.88671875 15.5234375 C13.7610455 18.59884145 13.7610455 18.59884145 10.984375 18.359375 C8.15507798 17.23187116 6.36470551 15.52510171 4.13671875 13.4609375 C3.3375 12.72746094 2.53828125 11.99398437 1.71484375 11.23828125 C1.1115625 10.67238281 0.50828125 10.10648438 -0.11328125 9.5234375 C0.43982972 13.12255398 1.5996258 14.44935769 4.44921875 16.6484375 C6.390625 18.15625 6.390625 18.15625 7.88671875 19.5234375 C7.88671875 20.1834375 7.88671875 20.8434375 7.88671875 21.5234375 C5.80757211 22.22349699 3.72320289 22.90805994 1.63671875 23.5859375 C0.4765625 23.96878906 -0.68359375 24.35164063 -1.87890625 24.74609375 C-4.89909779 25.47196104 -6.32256793 25.7925476 -9.11328125 24.5234375 C-9.60828125 23.5334375 -9.60828125 23.5334375 -10.11328125 22.5234375 C-10.29890625 23.1421875 -10.48453125 23.7609375 -10.67578125 24.3984375 C-12.40680354 26.95734001 -13.93516913 27.50398881 -16.89453125 28.21875 C-21.29806844 28.82346109 -25.67733904 28.63296694 -30.11328125 28.5234375 C-30.11328125 22.5834375 -30.11328125 16.6434375 -30.11328125 10.5234375 C-28.13328125 10.1934375 -26.15328125 9.8634375 -24.11328125 9.5234375 C-24.11328125 8.8634375 -24.11328125 8.2034375 -24.11328125 7.5234375 C-24.93570313 7.56984375 -25.758125 7.61625 -26.60546875 7.6640625 C-35.74782933 7.95965845 -42.47370531 6.61648813 -50.11328125 1.5234375 C-50.11328125 0.8634375 -50.11328125 0.2034375 -50.11328125 -0.4765625 C-45.50057917 -1.38585728 -41.06247395 -1.59583469 -36.37890625 -1.5390625 C-35.30005157 -1.53338257 -35.30005157 -1.53338257 -34.19940186 -1.52758789 C-31.92063163 -1.51545195 -29.64199294 -1.49680915 -27.36328125 -1.4765625 C-24.34765993 -1.45001542 -21.33210002 -1.43002439 -18.31640625 -1.4140625 C-17.62371643 -1.40576416 -16.93102661 -1.39746582 -16.21734619 -1.38891602 C-4.20221552 -1.32701543 -4.20221552 -1.32701543 0 0 Z " fill="#1D5C97" transform="translate(171.11328125,30.4765625)"/>
<path d="M0 0 C1.9375 0.3125 1.9375 0.3125 4 1 C4.33 1.99 4.66 2.98 5 4 C11.93 4 18.86 4 26 4 C26 4.66 26 5.32 26 6 C19.6221448 7.17293889 13.49678438 8.29530838 7 8 C11.08557904 17.56020065 11.08557904 17.56020065 18 25 C20.64 25.66 23.28 26.32 26 27 C26 20.4 26 13.8 26 7 C26.66 7.33 27.32 7.66 28 8 C28.495 16.91 28.495 16.91 29 26 C30.98 26 32.96 26 35 26 C32.25213022 28.74786978 30.20731601 28.47289404 26.375 28.875 C17.33709855 30.0695587 12.62046514 31.8322794 7 39 C11.37418249 39.02497996 15.74832563 39.04299062 20.12255859 39.05493164 C21.60628992 39.05991708 23.09001646 39.06670785 24.57373047 39.07543945 C32.77812616 39.12246397 40.84300472 39.0216355 49 38 C49 37.34 49 36.68 49 36 C49.98871094 35.91363281 50.97742188 35.82726562 51.99609375 35.73828125 C56.47475256 35.09493177 60.08792675 33.27122013 64.0625 31.1875 C64.74376953 30.84396484 65.42503906 30.50042969 66.12695312 30.14648438 C70.28769655 28.01615177 74.16066096 25.66537578 78 23 C71.55921761 15.09540344 60.37363258 12.62990632 51 10 C50.34 11.98 49.68 13.96 49 16 C48.01 16 47.02 16 46 16 C46.875 11.25 46.875 11.25 48 9 C41.4 8.01 34.8 7.02 28 6 C28 5.34 28 4.68 28 4 C35.41834582 3.90622877 42.66236293 3.82597807 50 5 C50.33 3.35 50.66 1.7 51 0 C52.32 0 53.64 0 55 0 C54.34 2.31 53.68 4.62 53 7 C53.94875 7.0825 54.8975 7.165 55.875 7.25 C60.88977467 7.93991766 65.38454926 10.00337644 70 12 C70.28101563 11.42765625 70.56203125 10.8553125 70.8515625 10.265625 C71.97198782 8.05526213 73.1292948 5.89229556 74.375 3.75 C74.77460938 3.04359375 75.17421875 2.3371875 75.5859375 1.609375 C76.05257812 1.07828125 76.51921875 0.5471875 77 0 C78.32 0 79.64 0 81 0 C79.63611314 4.09166058 77.5935864 7.02995722 74.92578125 10.3515625 C74.62027344 10.89554688 74.31476563 11.43953125 74 12 C75.33332095 15.99996286 77.4957827 16.83782337 81 19 C89.2253093 15.37065067 94.79281675 7.02969739 100 0 C101.32 0.33 102.64 0.66 104 1 C88.22357187 23.46945825 68.53651277 38.34184653 41.0234375 43.3125 C30.45780611 44.93989784 15.01316883 46.36788435 5 42 C3.6640625 40.14453125 3.6640625 40.14453125 3 38 C4.24129279 33.57789444 5.14013398 31.54399687 9.0625 29.0625 C12 28 12 28 14 28 C13.37351562 27.10796875 12.74703125 26.2159375 12.1015625 25.296875 C11.27590274 24.11468035 10.45038961 22.93238328 9.625 21.75 C9.2125 21.16347656 8.8 20.57695312 8.375 19.97265625 C6.35295912 17.07004918 4.45533455 14.23052285 3 11 C-0.42322452 11.4027323 -3.44337757 11.76144753 -6.625 13.125 C-9.48899614 14.18015647 -11.10751562 13.82642411 -14 13 C-14 12.34 -14 11.68 -14 11 C-12.06441401 10.32779649 -10.12645628 9.66241923 -8.1875 9 C-7.10855469 8.62875 -6.02960938 8.2575 -4.91796875 7.875 C-2 7 -2 7 1 7 C0.67 4.69 0.34 2.38 0 0 Z " fill="#1D5C98" transform="translate(112,160)"/>
<path d="M0 0 C3.38364092 0.27466515 4.67397507 0.62972418 6.95703125 3.22265625 C7.87548828 4.62837891 7.87548828 4.62837891 8.8125 6.0625 C12.40877523 11.30963681 16.34639735 15.68056563 21 20 C23.24215439 18.9211391 25.13939103 17.89340686 27.125 16.375 C29 15 29 15 31 15 C29.02345381 11.47045322 27.05085894 8.0155281 24.75 4.6875 C23 2 23 2 23 0 C24.32 0 25.64 0 27 0 C28.78125 2.3359375 28.78125 2.3359375 30.5 5.375 C33.225321 10.34711189 33.225321 10.34711189 38 13 C40.90100864 12.69463067 43.26526862 11.90052427 46 10.875 C49.36935789 9.89227062 50.72301585 9.81020268 54 11 C55.9140625 13.6171875 55.9140625 13.6171875 57.625 16.875 C59.50918766 20.41318044 61.12279458 23.22742023 64 26 C64 26.66 64 27.32 64 28 C58.25 31 58.25 31 56 31 C55.11064623 34.303314 54.53725895 37.62294375 54 41 C33.20451364 38.02921623 15.85683301 22.71259861 3.27734375 6.82421875 C0 2.41486769 0 2.41486769 0 0 Z " fill="#1B5996" transform="translate(62,160)"/>
<path d="M0 0 C3.48675618 0.03124333 3.94836829 0.14813146 6.625 2.6875 C10.03586556 8.55418876 9.44456839 14.46712219 9.48266602 21.08911133 C9.49417849 22.48276936 9.51461929 23.87638354 9.54418945 25.26977539 C9.58705813 27.29082989 9.60305979 29.31057744 9.61328125 31.33203125 C9.62786377 32.53835205 9.64244629 33.74467285 9.6574707 34.98754883 C9.05870215 39.30334812 7.27383394 42.28866606 4.1875 45.375 C1.25922641 45.66302691 -0.96486258 45.87915371 -3.8125 45.375 C-7.30188952 42.06455354 -8.70539604 39.18985806 -8.98950195 34.37573242 C-9.04393964 31.13744921 -9.08903311 27.89959271 -9.10766602 24.66088867 C-9.11917849 23.26723064 -9.13961929 21.87361646 -9.16918945 20.48022461 C-9.21205813 18.45917011 -9.22805979 16.43942256 -9.23828125 14.41796875 C-9.25286377 13.21164795 -9.26744629 12.00532715 -9.2824707 10.76245117 C-8.45871386 4.824983 -5.97352228 0.58755957 0 0 Z " fill="#F6FBFD" transform="translate(209.8125,90.625)"/>
<path d="M0 0 C0.495 0.99 0.495 0.99 1 2 C-2.33155251 3.66577625 -6.06536059 3.12007856 -9.7265625 3.09765625 C-11.02078629 3.09553383 -11.02078629 3.09553383 -12.34115601 3.09336853 C-15.1024723 3.08776188 -17.86370812 3.07520827 -20.625 3.0625 C-22.4947905 3.05748586 -24.36458226 3.0529228 -26.234375 3.04882812 C-30.82294777 3.03779029 -35.41146023 3.0205212 -40 3 C-39.505 4.98 -39.505 4.98 -39 7 C-39.928125 7.020625 -40.85625 7.04125 -41.8125 7.0625 C-50.7852149 8.35210072 -58.63620418 16.00089162 -65 22 C-66.98 21.01 -68.96 20.02 -71 19 C-71 18.01 -71 17.02 -71 16 C-66.38 13.36 -61.76 10.72 -57 8 C-57.66 7.01 -58.32 6.02 -59 5 C-40.76599492 -2.19859519 -19.30587582 -5.63522862 0 0 Z " fill="#1F5C97" transform="translate(161,27)"/>
<path d="M0 0 C1.15338867 -0.03673828 1.15338867 -0.03673828 2.33007812 -0.07421875 C8.05753921 -0.10321855 12.41721604 1.14835066 17.1875 4.375 C19.6875 7.125 19.6875 7.125 21.1875 9.375 C13.20870804 11.39516466 5.57706026 11.64751863 -2.625 11.5625 C-3.82576172 11.56185547 -5.02652344 11.56121094 -6.26367188 11.56054688 C-11.25981695 11.53549657 -15.92640782 11.50195443 -20.8125 10.375 C-19.04046497 5.86436538 -15.93856176 3.47333449 -11.6953125 1.28125 C-7.75925315 0.04389801 -4.10294647 0.00677613 0 0 Z " fill="#F2FAFC" transform="translate(139.8125,188.625)"/>
<path d="M0 0 C0.33 0.66 0.66 1.32 1 2 C2.175625 1.62875 2.175625 1.62875 3.375 1.25 C7.12887118 0.99111233 8.25893326 1.37680823 11.5625 2.875 C17.57984928 5.53916991 23.48839713 5.79587452 30 6 C30 6.66 30 7.32 30 8 C27.69 8.33 25.38 8.66 23 9 C23 15.6 23 22.2 23 29 C22.34 28.67 21.68 28.34 21 28 C21 21.73 21 15.46 21 9 C13.48543426 9.9360755 13.48543426 9.9360755 9 15 C6.60038618 18.29003656 4.27537695 21.62299963 2 25 C1.34 24.67 0.68 24.34 0 24 C0.55409964 19.77973426 1.96252286 17.1871824 4.4375 13.75 C5.05496094 12.87859375 5.67242187 12.0071875 6.30859375 11.109375 C8 9 8 9 10 8 C6.64143274 5.52748681 6.64143274 5.52748681 2.62890625 5.2421875 C-4.55473299 7.31295424 -11.95180963 12.4886729 -17 18 C-17.33 18.99 -17.66 19.98 -18 21 C-19.32 21 -20.64 21 -22 21 C-22 20.01 -22 19.02 -22 18 C-21.34 17.67 -20.68 17.34 -20 17 C-19.74734375 16.41476563 -19.4946875 15.82953125 -19.234375 15.2265625 C-17.49195034 12.08358131 -15.12116884 10.5105211 -12.25 8.375 C-11.22390625 7.59898438 -10.1978125 6.82296875 -9.140625 6.0234375 C-6.11197162 4.07214092 -3.45490482 2.96199445 0 2 C0 1.34 0 0.68 0 0 Z " fill="#195B9A" transform="translate(117,32)"/>
<path d="M0 0 C3.36786687 2.11470711 5.88955287 3.88166379 8.625 6.8125 C9.40875 7.534375 10.1925 8.25625 11 9 C13.05714832 8.98617135 13.05714832 8.98617135 15 8 C16.66519519 7.65939189 18.33157466 7.32441604 20 7 C20.33 6.01 20.66 5.02 21 4 C26.06004606 5.48214036 28.92724106 8.51112276 32.5 12.1875 C33.05558594 12.73986328 33.61117187 13.29222656 34.18359375 13.86132812 C44 23.80477022 44 23.80477022 44 28 C42.68 28 41.36 28 40 28 C38.25390625 26.20703125 38.25390625 26.20703125 36.5625 23.8125 C33.92664575 20.22121883 31.24295031 17.07226872 28 14 C26.33333333 12.33333333 24.66666667 10.66666667 23 9 C22.4225 9.309375 21.845 9.61875 21.25 9.9375 C19.15095893 10.92871384 17.24925862 11.47548801 15 12 C15.6496875 12.98742188 16.299375 13.97484375 16.96875 14.9921875 C17.81273833 16.28630293 18.65647535 17.58058229 19.5 18.875 C19.92925781 19.52597656 20.35851562 20.17695312 20.80078125 20.84765625 C24 25.7734375 24 25.7734375 24 28 C22.68 28 21.36 28 20 28 C18.18359375 25.62890625 18.18359375 25.62890625 16.4375 22.5625 C14.1751115 18.15829481 14.1751115 18.15829481 10 16 C7.78763476 16.57050531 7.78763476 16.57050531 5.5 17.5 C1.33333333 19.11111111 1.33333333 19.11111111 -2 18 C-2 17.34 -2 16.68 -2 16 C4.5 13 4.5 13 9 13 C8.2575 12.278125 7.515 11.55625 6.75 10.8125 C0 3.90909091 0 3.90909091 0 0 Z " fill="#195794" transform="translate(170,39)"/>
<path d="M0 0 C2.3125 1.5625 2.3125 1.5625 4 3 C3.01 3.33 2.02 3.66 1 4 C-0.03307106 5.77211082 -0.03307106 5.77211082 -1 8 C-2.19018351 9.92798957 -3.39977163 11.8440892 -4.625 13.75 C-5.25664063 14.73484375 -5.88828125 15.7196875 -6.5390625 16.734375 C-7.02117187 17.48203125 -7.50328125 18.2296875 -8 19 C-14.40140935 18.53444296 -19.26769829 16.85288164 -25 14 C-8.12565445 -3.38568935 -8.12565445 -3.38568935 0 0 Z " fill="#EFF8FC" transform="translate(124,37)"/>
<path d="M0 0 C1.32 0 2.64 0 4 0 C3.34 2.31 2.68 4.62 2 7 C2.94875 7.0825 3.8975 7.165 4.875 7.25 C9.88977467 7.93991766 14.38454926 10.00337644 19 12 C19.28101563 11.42765625 19.56203125 10.8553125 19.8515625 10.265625 C20.97198782 8.05526213 22.1292948 5.89229556 23.375 3.75 C23.77460938 3.04359375 24.17421875 2.3371875 24.5859375 1.609375 C25.05257812 1.07828125 25.51921875 0.5471875 26 0 C27.32 0 28.64 0 30 0 C28.63611314 4.09166058 26.5935864 7.02995722 23.92578125 10.3515625 C23.62027344 10.89554688 23.31476563 11.43953125 23 12 C24.24546405 15.73639216 25.63404953 16.18756513 29 18 C28.505 19.485 28.505 19.485 28 21 C24.69859408 19.73291111 21.61235064 18.29842141 18.5 16.625 C12.57718727 13.60991255 6.38162272 11.79045528 0 10 C-0.66 11.98 -1.32 13.96 -2 16 C-2.99 16 -3.98 16 -5 16 C-4.125 11.25 -4.125 11.25 -3 9 C-9.6 8.01 -16.2 7.02 -23 6 C-23 5.34 -23 4.68 -23 4 C-15.58165418 3.90622877 -8.33763707 3.82597807 -1 5 C-0.67 3.35 -0.34 1.7 0 0 Z " fill="#1B5A97" transform="translate(163,160)"/>
<path d="M0 0 C5.93744213 3.33472777 11.41978569 7.51541524 16.3125 12.25 C16.3125 12.91 16.3125 13.57 16.3125 14.25 C14.23335336 14.95005949 12.14898414 15.63462244 10.0625 16.3125 C8.90234375 16.69535156 7.7421875 17.07820313 6.546875 17.47265625 C1.85379851 18.60058164 1.85379851 18.60058164 -0.6875 17.25 C-2.50390625 14.8515625 -2.50390625 14.8515625 -4.25 11.875 C-6.19478517 8.59182147 -7.98893447 5.92395855 -10.6875 3.25 C-10.6875 2.59 -10.6875 1.93 -10.6875 1.25 C-6.66048753 -1.82324636 -4.43874354 -2.08840406 0 0 Z " fill="#EFF8FC" transform="translate(162.6875,37.75)"/>
<path d="M0 0 C6.8178246 -0.17044562 12.47542285 0.03031633 19 2 C17.69091868 5.55591802 16.12739559 8.55490999 14 11.6875 C13.2265625 12.83798828 13.2265625 12.83798828 12.4375 14.01171875 C11 16 11 16 9 18 C6.03 18 3.06 18 0 18 C0 12.06 0 6.12 0 0 Z " fill="#F9FCFD" transform="translate(141,167)"/>
<path d="M0 0 C1.9140625 2.6171875 1.9140625 2.6171875 3.625 5.875 C5.50918766 9.41318044 7.12279458 12.22742023 10 15 C10 15.66 10 16.32 10 17 C7 19 7 19 4.61328125 18.7890625 C-3.1081839 16.45761861 -10.56272409 10.89291356 -16 5 C-16 4.34 -16 3.68 -16 3 C-14.27709395 2.29695778 -12.54632534 1.61316509 -10.8125 0.9375 C-9.84957031 0.55464844 -8.88664062 0.17179688 -7.89453125 -0.22265625 C-4.64371832 -1.09568159 -3.10890837 -1.30008896 0 0 Z " fill="#F1F9FC" transform="translate(116,171)"/>
<path d="M0 0 C0 5.94 0 11.88 0 18 C-7 19 -7 19 -9.328125 17.33984375 C-9.96234375 16.54707031 -10.5965625 15.75429687 -11.25 14.9375 C-11.91515625 14.10863281 -12.5803125 13.27976563 -13.265625 12.42578125 C-15.9621487 8.65429203 -18 5.70046673 -18 1 C-11.95210034 -0.07518216 -6.14252407 -0.07583363 0 0 Z " fill="#F7FCFD" transform="translate(137,167)"/>
<path d="M0 0 C1.07701172 -0.00128906 2.15402344 -0.00257812 3.26367188 -0.00390625 C4.92946289 0.00189453 4.92946289 0.00189453 6.62890625 0.0078125 C7.73556641 0.00394531 8.84222656 0.00007813 9.98242188 -0.00390625 C15.49100893 0.00267903 20.76713261 0.14941901 26.19140625 1.1328125 C26.19140625 1.7928125 26.19140625 2.4528125 26.19140625 3.1328125 C24.61066061 3.95033553 23.02669402 4.76163247 21.44140625 5.5703125 C20.5596875 6.02277344 19.67796875 6.47523437 18.76953125 6.94140625 C12.3705392 9.89851621 5.12967303 10.27740519 -1.64453125 8.30859375 C-5.3222156 6.85801151 -8.51239799 5.33027634 -11.80859375 3.1328125 C-11.80859375 2.4728125 -11.80859375 1.8128125 -11.80859375 1.1328125 C-7.82326227 0.38969079 -4.05218967 0.0047052 0 0 Z " fill="#EFF8FC" transform="translate(132.80859375,28.8671875)"/>
<path d="M0 0 C2.56400394 1.11090306 4.08852729 2.6062578 6.08203125 4.5625 C10.91212259 9.03033449 16.1453883 11.9763575 22.01953125 14.875 C21.02953125 17.35 21.02953125 17.35 20.01953125 19.875 C9.47671801 18.41115296 -0.61761376 13.41053825 -8.98046875 6.875 C-8.98046875 6.215 -8.98046875 5.555 -8.98046875 4.875 C-7.58984375 3.55078125 -7.58984375 3.55078125 -5.73046875 2.1875 C-5.1271875 1.72988281 -4.52390625 1.27226562 -3.90234375 0.80078125 C-1.98046875 -0.125 -1.98046875 -0.125 0 0 Z " fill="#ECF7FB" transform="translate(95.98046875,177.125)"/>
<path d="M0 0 C5.45479185 0.56820748 9.91059256 1.94637945 15 4 C12.37720364 10.51327763 5.50465068 14.37934368 -0.1875 18.0625 C-3.77733742 19.25911247 -6.34519567 18.80405695 -10 18 C-8.70126608 14.45970129 -7.15122134 11.52988067 -5 8.4375 C-3.09937057 5.69584204 -1.42409849 3.01936265 0 0 Z " fill="#F2FAFC" transform="translate(163,170)"/>
<path d="M0 0 C7 0 7 0 9.07421875 1.28515625 C18 11.11864407 18 11.11864407 18 16 C11.86341162 18.18189809 6.50668891 18.16065899 0 18 C0 12.06 0 6.12 0 0 Z " fill="#F7FCFD" transform="translate(141,41)"/>
<path d="M0 0 C3.76127491 0.10165608 4.98989184 0.99079034 7.8125 3.5625 C8.534375 4.366875 9.25625 5.17125 10 6 C-7.29240218 19.19375155 -7.29240218 19.19375155 -15.76171875 18.90625 C-18 18 -18 18 -19.3125 15.9375 C-19.539375 15.298125 -19.76625 14.65875 -20 14 C-18.88625 13.505 -17.7725 13.01 -16.625 12.5 C-10.3991376 9.40930402 -4.90306736 4.90306736 0 0 Z " fill="#EFF9FC" transform="translate(181,177)"/>
<path d="M0 0 C0 5.94 0 11.88 0 18 C-6.48722238 18.18020062 -11.78234718 17.8422675 -18 16 C-9.49455338 0 -9.49455338 0 0 0 Z " fill="#FAFDFD" transform="translate(137,41)"/>
<path d="M0 0 C1.6640625 1.15234375 1.6640625 1.15234375 3 3 C3.3984375 5.77734375 3.3984375 5.77734375 3.375 8.9375 C3.38273437 9.97777344 3.39046875 11.01804688 3.3984375 12.08984375 C2.95565409 15.32389903 2.30154918 16.71465892 0 19 C-3 19.5 -3 19.5 -6 19 C-8.30154918 16.71465892 -8.95565409 15.32389903 -9.3984375 12.08984375 C-9.39070313 11.04957031 -9.38296875 10.00929687 -9.375 8.9375 C-9.38273437 7.89464844 -9.39046875 6.85179687 -9.3984375 5.77734375 C-9 3 -9 3 -7.6640625 1.15234375 C-5.06768013 -0.64562057 -3.06425656 -0.38303207 0 0 Z " fill="#E4F2F9" transform="translate(105,216)"/>
<path d="M0 0 C1.6640625 1.15234375 1.6640625 1.15234375 3 3 C3.3984375 5.77734375 3.3984375 5.77734375 3.375 8.9375 C3.38273438 9.97777344 3.39046875 11.01804688 3.3984375 12.08984375 C2.95565409 15.32389903 2.30154918 16.71465892 0 19 C-3 19.5 -3 19.5 -6 19 C-8.30154918 16.71465892 -8.95565409 15.32389903 -9.3984375 12.08984375 C-9.39070312 11.04957031 -9.38296875 10.00929687 -9.375 8.9375 C-9.38273438 7.89464844 -9.39046875 6.85179687 -9.3984375 5.77734375 C-9 3 -9 3 -7.6640625 1.15234375 C-5.06768013 -0.64562057 -3.06425656 -0.38303207 0 0 Z " fill="#E4F4FB" transform="translate(172,216)"/>
<path d="M0 0 C1.6640625 1.15234375 1.6640625 1.15234375 3 3 C3.3984375 5.77734375 3.3984375 5.77734375 3.375 8.9375 C3.38273437 9.97777344 3.39046875 11.01804688 3.3984375 12.08984375 C2.95565409 15.32389903 2.30154918 16.71465892 0 19 C-3 19.5 -3 19.5 -6 19 C-8.30154918 16.71465892 -8.95565409 15.32389903 -9.3984375 12.08984375 C-9.39070313 11.04957031 -9.38296875 10.00929687 -9.375 8.9375 C-9.38273437 7.89464844 -9.39046875 6.85179687 -9.3984375 5.77734375 C-9 3 -9 3 -7.6640625 1.15234375 C-5.06768013 -0.64562057 -3.06425656 -0.38303207 0 0 Z " fill="#E2F2FA" transform="translate(120,216)"/>
<path d="M0 0 C1.66796875 1.18359375 1.66796875 1.18359375 3 3 C3.36328125 5.55859375 3.36328125 5.55859375 3.3125 8.4375 C3.30863281 9.38496094 3.30476563 10.33242187 3.30078125 11.30859375 C2.99247386 14.06734433 2.58678023 15.72872633 1 18 C-2.4375 18.9375 -2.4375 18.9375 -6 19 C-7.9375 17.6875 -7.9375 17.6875 -9 16 C-9 15.34 -9 14.68 -9 14 C-8.4225 14.350625 -7.845 14.70125 -7.25 15.0625 C-5.07806076 16.16030924 -5.07806076 16.16030924 -2.875 15.875 C-0.424863 14.73160273 0.04432617 13.46882406 1 11 C-0.093125 11.226875 -1.18625 11.45375 -2.3125 11.6875 C-6 12 -6 12 -7.9375 10.9375 C-9.47555213 8.13281671 -9.39310741 6.14485925 -9 3 C-6.79086995 -0.68188342 -4.01844539 -0.50230567 0 0 Z " fill="#195186" transform="translate(90,216)"/>
<path d="M0 0 C0 0.66 0 1.32 0 2 C-1.77190496 3.10931444 -3.59561396 4.13622222 -5.4375 5.125 C-11.33709408 8.44920781 -16.15760404 12.29211504 -21 17 C-22.98 16.01 -24.96 15.02 -27 14 C-27 13.01 -27 12.02 -27 11 C-7.24756535 -0.67945925 -7.24756535 -0.67945925 0 0 Z " fill="#EFF7FB" transform="translate(117,32)"/>
<path d="M0 0 C5.33313755 0.55918657 9.36835028 2.39748927 14.0625 4.8125 C15.10374023 5.32780273 15.10374023 5.32780273 16.16601562 5.85351562 C20.1580207 7.87416017 23.59796578 10.04891768 27 13 C24.75 15.0625 24.75 15.0625 22 17 C18.04471477 16.76103485 16.00458504 14.39931428 13.25 11.75 C10.09812516 8.80856191 7.08541164 6.26101793 3.375 4.0625 C2.26125 3.381875 1.1475 2.70125 0 2 C0 1.34 0 0.68 0 0 Z " fill="#E5F4FB" transform="translate(162,32)"/>
<path d="M0 0 C1.0759845 -0.0049926 1.0759845 -0.0049926 2.17370605 -0.01008606 C3.68659832 -0.01513658 5.19950166 -0.01749497 6.71240234 -0.01733398 C9.02329843 -0.01952372 11.33371933 -0.03770761 13.64453125 -0.05664062 C15.11718587 -0.05957432 16.58984276 -0.06155928 18.0625 -0.0625 C18.75114136 -0.06968552 19.43978271 -0.07687103 20.14929199 -0.08427429 C23.78291633 -0.06700819 26.44015459 0.1809063 29.53125 2.16796875 C29.53125 2.49796875 29.53125 2.82796875 29.53125 3.16796875 C16.2454466 6.58083568 0.8170534 6.58083568 -12.46875 3.16796875 C-11.46875 1.16796875 -11.46875 1.16796875 -9.87304688 0.5534668 C-6.5824473 0.02586152 -3.32355067 0.00537076 0 0 Z " fill="#1B5A95" transform="translate(129.46875,198.83203125)"/>
<path d="M0 0 C3.5 0.25 3.5 0.25 5.5 2.25 C6.1875 4.9375 6.1875 4.9375 5.5 8.25 C2.73314556 10.93089392 -0.30490599 13.10725838 -3.5 15.25 C-0.53 15.58 2.44 15.91 5.5 16.25 C5.5 17.24 5.5 18.23 5.5 19.25 C1.21 19.25 -3.08 19.25 -7.5 19.25 C-6.41691293 13.83456463 -6.11483249 13.43811911 -1.9375 10.4375 C-1.11121094 9.83292969 -0.28492188 9.22835937 0.56640625 8.60546875 C1.20449219 8.15816406 1.84257812 7.71085938 2.5 7.25 C2.17 5.93 1.84 4.61 1.5 3.25 C-0.97266765 3.59444881 -0.97266765 3.59444881 -3.5 4.25 C-3.83 4.91 -4.16 5.57 -4.5 6.25 C-5.16 6.25 -5.82 6.25 -6.5 6.25 C-5.60830437 1.79152184 -4.83428022 0.34530573 0 0 Z " fill="#2A5E92" transform="translate(154.5,215.75)"/>
<path d="M0 0 C3.3 0 6.6 0 10 0 C10 0.66 10 1.32 10 2 C7.36 2 4.72 2 2 2 C2 3.32 2 4.64 2 6 C3.11375 6.12375 4.2275 6.2475 5.375 6.375 C9 7 9 7 11 9 C11.46879799 12.59411792 11.44361448 14.35164037 9.375 17.375 C6.35164037 19.44361448 4.59411792 19.46879799 1 19 C0.34 18.34 -0.32 17.68 -1 17 C-1 16.01 -1 15.02 -1 14 C-0.34 14 0.32 14 1 14 C1.33 14.66 1.66 15.32 2 16 C3.65 16 5.3 16 7 16 C7 14.02 7 12.04 7 10 C4.36 10 1.72 10 -1 10 C-0.67 6.7 -0.34 3.4 0 0 Z " fill="#2B5F8F" transform="translate(194,216)"/>
<path d="M0 0 C1.6640625 1.15234375 1.6640625 1.15234375 3 3 C3.3984375 5.77734375 3.3984375 5.77734375 3.375 8.9375 C3.38273438 9.97777344 3.39046875 11.01804688 3.3984375 12.08984375 C2.95565409 15.32389903 2.30154918 16.71465892 0 19 C-3 19.5 -3 19.5 -6 19 C-8.30154918 16.71465892 -8.95565409 15.32389903 -9.3984375 12.08984375 C-9.39070312 11.04957031 -9.38296875 10.00929687 -9.375 8.9375 C-9.38273438 7.89464844 -9.39046875 6.85179687 -9.3984375 5.77734375 C-9 3 -9 3 -7.6640625 1.15234375 C-5.06768013 -0.64562057 -3.06425656 -0.38303207 0 0 Z M-5 2 C-7.46934085 5.70401128 -7.44928433 8.70587865 -7 13 C-6.13734032 15.40557853 -6.13734032 15.40557853 -5 17 C-3.35 16.67 -1.7 16.34 0 16 C0.8814688 13.35559361 1.16174818 11.71939248 1.1875 9 C1.20876953 7.9790625 1.20876953 7.9790625 1.23046875 6.9375 C1.10940411 4.67385868 1.10940411 4.67385868 -1 2 C-2.32 2 -3.64 2 -5 2 Z " fill="#215689" transform="translate(172,216)"/>
<path d="M0 0 C1.6640625 1.15234375 1.6640625 1.15234375 3 3 C3.3984375 5.77734375 3.3984375 5.77734375 3.375 8.9375 C3.38273437 9.97777344 3.39046875 11.01804688 3.3984375 12.08984375 C2.95565409 15.32389903 2.30154918 16.71465892 0 19 C-3 19.5 -3 19.5 -6 19 C-8.30154918 16.71465892 -8.95565409 15.32389903 -9.3984375 12.08984375 C-9.39070313 11.04957031 -9.38296875 10.00929687 -9.375 8.9375 C-9.38273437 7.89464844 -9.39046875 6.85179687 -9.3984375 5.77734375 C-9 3 -9 3 -7.6640625 1.15234375 C-5.06768013 -0.64562057 -3.06425656 -0.38303207 0 0 Z M-5 2 C-7.46934085 5.70401128 -7.44928433 8.70587865 -7 13 C-6.13734032 15.40557853 -6.13734032 15.40557853 -5 17 C-3.35 16.67 -1.7 16.34 0 16 C0.93385816 13.19842552 1.16354595 11.34552197 1.1875 8.4375 C1.20876953 7.25994141 1.20876953 7.25994141 1.23046875 6.05859375 C1.19167509 3.7756455 1.19167509 3.7756455 -1 2 C-2.32 2 -3.64 2 -5 2 Z " fill="#1F568D" transform="translate(105,216)"/>
<path d="M0 0 C1.6640625 1.15234375 1.6640625 1.15234375 3 3 C3.3984375 5.77734375 3.3984375 5.77734375 3.375 8.9375 C3.38273437 9.97777344 3.39046875 11.01804688 3.3984375 12.08984375 C2.95565409 15.32389903 2.30154918 16.71465892 0 19 C-3 19.5 -3 19.5 -6 19 C-8.30154918 16.71465892 -8.95565409 15.32389903 -9.3984375 12.08984375 C-9.39070313 11.04957031 -9.38296875 10.00929687 -9.375 8.9375 C-9.38273437 7.89464844 -9.39046875 6.85179687 -9.3984375 5.77734375 C-9 3 -9 3 -7.6640625 1.15234375 C-5.06768013 -0.64562057 -3.06425656 -0.38303207 0 0 Z M-5 2 C-7.21559352 3.80197672 -7.21559352 3.80197672 -7.265625 6.27734375 C-7.26046875 7.15519531 -7.2553125 8.03304687 -7.25 8.9375 C-7.25515625 9.81277344 -7.2603125 10.68804687 -7.265625 11.58984375 C-7.15833837 14.26105634 -7.15833837 14.26105634 -5 17 C-3.35 16.67 -1.7 16.34 0 16 C0.8814688 13.35559361 1.16174818 11.71939248 1.1875 9 C1.20876953 7.9790625 1.20876953 7.9790625 1.23046875 6.9375 C1.10940411 4.67385868 1.10940411 4.67385868 -1 2 C-2.32 2 -3.64 2 -5 2 Z " fill="#21588A" transform="translate(120,216)"/>
<path d="M0 0 C1.32 0 2.64 0 4 0 C4 0.99 4 1.98 4 3 C6.97 3 9.94 3 13 3 C13 3.33 13 3.66 13 4 C9.7 4 6.4 4 3 4 C3 4.66 3 5.32 3 6 C4.65 6 6.3 6 8 6 C6.68 6.33 5.36 6.66 4 7 C4 12.94 4 18.88 4 25 C6.64 25 9.28 25 12 25 C12 25.33 12 25.66 12 26 C9.03 26.33 6.06 26.66 3 27 C2.67 20.73 2.34 14.46 2 8 C1.67 14.27 1.34 20.54 1 27 C-0.32 26.34 -1.64 25.68 -3 25 C-2.01 25 -1.02 25 0 25 C0 19.06 0 13.12 0 7 C-0.99 6.67 -1.98 6.34 -3 6 C-1.68 6 -0.36 6 1 6 C1 5.34 1 4.68 1 4 C-0.98 4 -2.96 4 -5 4 C-5 3.67 -5 3.34 -5 3 C-3.35 3 -1.7 3 0 3 C0 2.01 0 1.02 0 0 Z " fill="#4A7AAA" transform="translate(137,160)"/>
<path d="M0 0 C0.99 0 1.98 0 3 0 C3.33 4.62 3.66 9.24 4 14 C2.02 14.99 2.02 14.99 0 16 C0 15.01 0 14.02 0 13 C-3.3 13 -6.6 13 -10 13 C-5.38461538 8.25641026 -5.38461538 8.25641026 -2.75 6.5 C-0.45012455 4.52867818 -0.31841635 2.9453512 0 0 Z " fill="#D2E8F5" transform="translate(160,219)"/>
<path d="M0 0 C0.5878125 0.99 0.5878125 0.99 1.1875 2 C2.85416667 4.29166667 2.85416667 4.29166667 5.6875 4.25 C6.8321875 4.12625 6.8321875 4.12625 8 4 C8.33 4.66 8.66 5.32 9 6 C8.67 6.66 8.34 7.32 8 8 C7.01 8 6.02 8 5 8 C5.66 10.64 6.32 13.28 7 16 C5.68 16 4.36 16 3 16 C2.67 14.02 2.34 12.04 2 10 C0.68 9.67 -0.64 9.34 -2 9 C-1.67 8.67 -1.34 8.34 -1 8 C-1.99 7.34 -2.98 6.68 -4 6 C-3.01 6 -2.02 6 -1 6 C-1.33 5.01 -1.66 4.02 -2 3 C-1.34 3 -0.68 3 0 3 C0 2.01 0 1.02 0 0 Z " fill="#24619C" transform="translate(160,51)"/>
<path d="M0 0 C4.62 0 9.24 0 14 0 C14 0.66 14 1.32 14 2 C11.69 2.33 9.38 2.66 7 3 C7 9.6 7 16.2 7 23 C6.34 22.67 5.68 22.34 5 22 C5 15.73 5 9.46 5 3 C2.03 2.505 2.03 2.505 -1 2 C-0.67 1.34 -0.34 0.68 0 0 Z " fill="#0A4D93" transform="translate(133,38)"/>
<path d="M0 0 C0.33 2.31 0.66 4.62 1 7 C-1.64 7 -4.28 7 -7 7 C-7 6.01 -7 5.02 -7 4 C-7.66 3.67 -8.32 3.34 -9 3 C-9 4.32 -9 5.64 -9 7 C-9.66 7 -10.32 7 -11 7 C-11 6.01 -11 5.02 -11 4 C-12.32 4 -13.64 4 -15 4 C-15 4.66 -15 5.32 -15 6 C-14.01 6.33 -13.02 6.66 -12 7 C-13.32 7 -14.64 7 -16 7 C-16.33 5.68 -16.66 4.36 -17 3 C-13.25 1 -13.25 1 -11 1 C-9.31160314 0.8426785 -7.62418358 0.67473557 -5.9375 0.5 C-1.09722222 0 -1.09722222 0 0 0 Z " fill="#7E7E7E" transform="translate(107,268)"/>
<path d="M0 0 C0 5.94 0 11.88 0 18 C-3.3 18 -6.6 18 -10 18 C-10 17.67 -10 17.34 -10 17 C-7.03 16.67 -4.06 16.34 -1 16 C-1 11.38 -1 6.76 -1 2 C-6.69020068 3.66449066 -6.69020068 3.66449066 -10.1875 7.3125 C-10.67863281 7.92867187 -11.16976562 8.54484375 -11.67578125 9.1796875 C-13.27210245 11.37404054 -14.70058401 13.61773736 -16 16 C-16.66 15.67 -17.32 15.34 -18 15 C-16.94890486 13.24312628 -15.88356877 11.49476874 -14.8125 9.75 C-14.22082031 8.77546875 -13.62914063 7.8009375 -13.01953125 6.796875 C-8.94946927 1.16019342 -7.16344263 0 0 0 Z " fill="#D9F1FA" transform="translate(137,41)"/>
<path d="M0 0 C3.69230769 0.69230769 3.69230769 0.69230769 5 2 C5.33 1.34 5.66 0.68 6 0 C7.32 0.33 8.64 0.66 10 1 C9.01 1 8.02 1 7 1 C7 1.66 7 2.32 7 3 C7.99 3.33 8.98 3.66 10 4 C9.67 5.32 9.34 6.64 9 8 C8.278125 7.814375 7.55625 7.62875 6.8125 7.4375 C3.87173027 6.98004693 1.85896942 7.26483643 -1 8 C-1.04241723 5.66705225 -1.04092937 3.33297433 -1 1 C-0.67 0.67 -0.34 0.34 0 0 Z " fill="#9E9E9E" transform="translate(191,267)"/>
<path d="M0 0 C0.33 1.32 0.66 2.64 1 4 C2.9490625 3.7215625 2.9490625 3.7215625 4.9375 3.4375 C7.15234375 3.12109375 7.15234375 3.12109375 9 3 C10 4 10 4 10.125 7 C10 10 10 10 9 11 C7.33382885 11.04063832 5.66611905 11.042721 4 11 C3.67 10.01 3.34 9.02 3 8 C2.34 8 1.68 8 1 8 C0.67 8.66 0.34 9.32 0 10 C0 6.7 0 3.4 0 0 Z " fill="#E9F7FC" transform="translate(192,222)"/>
<path d="M0 0 C0.66 0.33 1.32 0.66 2 1 C2.33 6.94 2.66 12.88 3 19 C4.98 19 6.96 19 9 19 C6.15385976 21.84614024 3.19630858 21.45579076 -0.625 21.625 C-1.33140625 21.66367188 -2.0378125 21.70234375 -2.765625 21.7421875 C-4.50998524 21.83647724 -6.25495691 21.91932891 -8 22 C-7.01 20.515 -7.01 20.515 -6 19 C-4.02 19.33 -2.04 19.66 0 20 C0 13.4 0 6.8 0 0 Z " fill="#0A4B90" transform="translate(138,167)"/>
<path d="M0 0 C0 6.27 0 12.54 0 19 C-0.99 19 -1.98 19 -3 19 C-3 14.38 -3 9.76 -3 5 C-4.32 5 -5.64 5 -7 5 C-7 4.34 -7 3.68 -7 3 C-2.61538462 0 -2.61538462 0 0 0 Z " fill="#4D79A5" transform="translate(134,216)"/>
<path d="M0 0 C6.8178246 -0.17044562 12.47542285 0.03031633 19 2 C18.34 3.32 17.68 4.64 17 6 C16.67 4.68 16.34 3.36 16 2 C11.05 2 6.1 2 1 2 C1.12375 4.454375 1.2475 6.90875 1.375 9.4375 C1.40899902 10.21150146 1.44299805 10.98550293 1.47802734 11.78295898 C1.58045182 13.52765111 1.78742165 15.26528048 2 17 C2.66 17.33 3.32 17.66 4 18 C2.68 18 1.36 18 0 18 C0 12.06 0 6.12 0 0 Z " fill="#DFF5FB" transform="translate(141,167)"/>
<path d="M0 0 C0.66 0.99 1.32 1.98 2 3 C1.61328125 3.50789063 1.2265625 4.01578125 0.828125 4.5390625 C-2.25427193 8.61331983 -5.21571155 12.71647931 -8 17 C-8.66 16.67 -9.32 16.34 -10 16 C-9.44590036 11.77973426 -8.03747714 9.1871824 -5.5625 5.75 C-4.94503906 4.87859375 -4.32757813 4.0071875 -3.69140625 3.109375 C-2 1 -2 1 0 0 Z " fill="#1A5894" transform="translate(127,40)"/>
<path d="M0 0 C2.31 0 4.62 0 7 0 C7.66 0.99 8.32 1.98 9 3 C6.69 2.67 4.38 2.34 2 2 C2 6.95 2 11.9 2 17 C4.97 17 7.94 17 11 17 C11 17.33 11 17.66 11 18 C7.37 18 3.74 18 0 18 C0 12.06 0 6.12 0 0 Z " fill="#DDF4FC" transform="translate(141,41)"/>
<path d="M0 0 C0.78761719 0.07863281 1.57523438 0.15726563 2.38671875 0.23828125 C3.02222656 0.38652344 3.65773437 0.53476562 4.3125 0.6875 C4.6425 1.3475 4.9725 2.0075 5.3125 2.6875 C2.36633462 4.16058269 -0.16512594 3.69044692 -3.4453125 3.56640625 C-4.10836395 3.54279526 -4.77141541 3.51918427 -5.45455933 3.49485779 C-7.57409129 3.41823184 -9.69325685 3.33420357 -11.8125 3.25 C-13.24867994 3.19677819 -14.6848778 3.1440378 -16.12109375 3.09179688 C-19.64345436 2.96261856 -23.16552352 2.8267997 -26.6875 2.6875 C-26.6875 2.3575 -26.6875 2.0275 -26.6875 1.6875 C-25.43453125 1.62691406 -24.1815625 1.56632812 -22.890625 1.50390625 C-21.23957276 1.41947744 -19.58853165 1.33483061 -17.9375 1.25 C-17.1125 1.21068359 -16.2875 1.17136719 -15.4375 1.13085938 C-14.63828125 1.08896484 -13.8390625 1.04707031 -13.015625 1.00390625 C-12.2824707 0.96724854 -11.54931641 0.93059082 -10.79394531 0.89282227 C-0.76506507 -0.08472621 -0.76506507 -0.08472621 0 0 Z " fill="#3A72A4" transform="translate(156.6875,26.3125)"/>
<path d="M0 0 C-3.56909386 3.56909386 -8.62542624 4.8247679 -13.59375 5.19140625 C-15.73011692 5.18802592 -17.86604848 5.10161674 -20 5 C-18.75 3.5 -18.75 3.5 -17 2 C-15.68 2 -14.36 2 -13 2 C-13 1.34 -13 0.68 -13 0 C-8.34462607 -0.83796731 -4.62921525 -1.0161692 0 0 Z " fill="#135695" transform="translate(174,196)"/>
<path d="M0 0 C2.05078125 0.03255208 4.1015625 0.06510417 6.15234375 0.09765625 C6.53453142 1.75380282 6.86629477 3.42222649 7.15234375 5.09765625 C6.15234375 6.09765625 6.15234375 6.09765625 4.3046875 6.1953125 C2.25390625 6.16276042 0.203125 6.13020833 -1.84765625 6.09765625 C-2.22984392 4.44150968 -2.56160727 2.77308601 -2.84765625 1.09765625 C-1.84765625 0.09765625 -1.84765625 0.09765625 0 0 Z " fill="#A4A4A4" transform="translate(131.84765625,268.90234375)"/>
<path d="M0 0 C0 0.99 0 1.98 0 3 C-0.94875 3.70125 -1.8975 4.4025 -2.875 5.125 C-6.98139252 8.34247932 -7.36571515 12.02457081 -8 17 C-8.10957031 17.77859375 -8.21914062 18.5571875 -8.33203125 19.359375 C-8.58160897 21.23619948 -8.79467134 23.11782059 -9 25 C-9.66 24.67 -10.32 24.34 -11 24 C-11.50868233 17.10452842 -11.2144371 11.68402468 -7 6 C-4.80304508 3.79834068 -2.49698513 1.85169684 0 0 Z " fill="#25629D" transform="translate(99,77)"/>
<path d="M0 0 C1.32 0 2.64 0 4 0 C4 2.64 4 5.28 4 8 C0.37 8 -3.26 8 -7 8 C-5.68 5.69 -4.36 3.38 -3 1 C-2.67 1.66 -2.34 2.32 -2 3 C-0.68 3 0.64 3 2 3 C2.33 2.34 2.66 1.68 3 1 C2.01 1.33 1.02 1.66 0 2 C0 1.34 0 0.68 0 0 Z " fill="#999999" transform="translate(216,267)"/>
<path d="M0 0 C0.66 0 1.32 0 2 0 C3.44963959 1.90374355 4.81184323 3.87467159 6.125 5.875 C6.84945312 6.96554688 7.57390625 8.05609375 8.3203125 9.1796875 C10 12 10 12 10 14 C8.68 14 7.36 14 6 14 C4.04296875 11.69921875 4.04296875 11.69921875 2.1875 8.6875 C1.56230469 7.70136719 0.93710938 6.71523438 0.29296875 5.69921875 C-1 3 -1 3 0 0 Z " fill="#1F5992" transform="translate(184,53)"/>
<path d="M0 0 C0.66 0 1.32 0 2 0 C2.33 0.99 2.66 1.98 3 3 C3.66 2.67 4.32 2.34 5 2 C5 3.98 5 5.96 5 8 C2 8 -1 8 -4 8 C-4.625 6.125 -4.625 6.125 -5 4 C-4.34 3.34 -3.68 2.68 -3 2 C-2.01 2 -1.02 2 0 2 C0 1.34 0 0.68 0 0 Z " fill="#989898" transform="translate(120,267)"/>
<path d="M0 0 C2.625 0.375 2.625 0.375 5 1 C5.625 3.375 5.625 3.375 6 6 C5.34 6.66 4.68 7.32 4 8 C1.375 7.625 1.375 7.625 -1 7 C-1.625 4.625 -1.625 4.625 -2 2 C-1.34 1.34 -0.68 0.68 0 0 Z " fill="#D9EDF8" transform="translate(85,218)"/>
<path d="M0 0 C1.32 0.33 2.64 0.66 4 1 C4 1.66 4 2.32 4 3 C6.31 3.33 8.62 3.66 11 4 C8.75 6.5625 8.75 6.5625 6 9 C3.8125 9.125 3.8125 9.125 2 8 C0.47835901 5.10888212 0 3.28176588 0 0 Z " fill="#EBF6FB" transform="translate(178,40)"/>
<path d="M0 0 C1.32 0 2.64 0 4 0 C6.60238338 2.63162364 8.42945625 5.65783944 10 9 C9.875 12.5625 9.875 12.5625 9 15 C0 4.33333333 0 4.33333333 0 0 Z " fill="#215B97" transform="translate(85,160)"/>
<path d="M0 0 C0.33 0 0.66 0 1 0 C1 6.27 1 12.54 1 19 C-1.743125 19.20625 -4.48625 19.4125 -7.3125 19.625 C-8.60281128 19.73062256 -8.60281128 19.73062256 -9.91918945 19.83837891 C-10.60198975 19.88397949 -11.28479004 19.92958008 -11.98828125 19.9765625 C-12.68477783 20.02893066 -13.38127441 20.08129883 -14.09887695 20.13525391 C-16 20 -16 20 -19 18 C-15.6769839 16.33849195 -11.99757099 17.18200635 -8.375 17.4375 C-5.61125 17.623125 -2.8475 17.80875 0 18 C0 12.06 0 6.12 0 0 Z " fill="#2C659B" transform="translate(137,41)"/>
<path d="M0 0 C0.99 0.33 1.98 0.66 3 1 C2.34 1.66 1.68 2.32 1 3 C3.97 3.33 6.94 3.66 10 4 C10 4.99 10 5.98 10 7 C5.71 7 1.42 7 -3 7 C-2 2 -2 2 0 0 Z " fill="#3D6E9C" transform="translate(150,228)"/>
<path d="M0 0 C0 5.94 0 11.88 0 18 C-0.66 18 -1.32 18 -2 18 C-2 13.71 -2 9.42 -2 5 C-3.65 5 -5.3 5 -7 5 C-7 4.34 -7 3.68 -7 3 C-2.61538462 0 -2.61538462 0 0 0 Z " fill="#17528B" transform="translate(186,216)"/>
<path d="M0 0 C1.15693359 0.0515625 2.31386719 0.103125 3.50585938 0.15625 C5.30313477 0.25292969 5.30313477 0.25292969 7.13671875 0.3515625 C8.35423828 0.40828125 9.57175781 0.465 10.82617188 0.5234375 C13.82614077 0.66461251 16.82523535 0.815999 19.82421875 0.9765625 C19.82421875 1.3065625 19.82421875 1.6365625 19.82421875 1.9765625 C18.62925781 2.03714844 17.43429688 2.09773437 16.203125 2.16015625 C14.59763184 2.24432741 12.99216463 2.32899431 11.38671875 2.4140625 C10.56155762 2.45700439 9.73639648 2.49994629 8.88623047 2.54418945 C4.7098504 2.77309435 0.59360425 3.07699946 -3.55078125 3.6640625 C-7.23693476 3.98183435 -8.13270856 3.72599415 -11.17578125 1.9765625 C-7.243607 0.11378634 -4.3272384 -0.21316445 0 0 Z " fill="#3C75AB" transform="translate(128.17578125,199.0234375)"/>
<path d="M0 0 C3.72433382 1.2125738 7.37802806 2.50859979 11 4 C7.94736336 4.98120464 6.05263664 4.98120464 3 4 C2.67 4.66 2.34 5.32 2 6 C-5.59 6 -13.18 6 -21 6 C-21 5.67 -21 5.34 -21 5 C-14.07 5 -7.14 5 0 5 C0 3.35 0 1.7 0 0 Z " fill="#D2EAF9" transform="translate(110,149)"/>
<path d="M0 0 C0.66 0.66 1.32 1.32 2 2 C-4.43013467 3.73955334 -10.34949576 4.24991456 -17 4 C-12.65908689 -0.87698973 -6.18995924 -0.36411525 0 0 Z " fill="#0E5190" transform="translate(159,58)"/>
<path d="M0 0 C0.33 1.32 0.66 2.64 1 4 C-0.93117554 4.58384377 -2.87029395 5.14147054 -4.8125 5.6875 C-5.89144531 6.00074219 -6.97039062 6.31398438 -8.08203125 6.63671875 C-11 7 -11 7 -12.88671875 5.58203125 C-13.25410156 5.05996094 -13.62148437 4.53789063 -14 4 C-12.23141309 3.32739649 -10.46003984 2.66211605 -8.6875 2 C-7.70136719 1.62875 -6.71523437 1.2575 -5.69921875 0.875 C-3 0 -3 0 0 0 Z " fill="#26629B" transform="translate(116,28)"/>
<path d="M0 0 C1.48831242 0.00667405 2.97660807 0.01863442 4.46484375 0.03515625 C5.22345703 0.03966797 5.98207031 0.04417969 6.76367188 0.04882812 C8.64326246 0.06064945 10.52281274 0.07858547 12.40234375 0.09765625 C12.40234375 0.75765625 12.40234375 1.41765625 12.40234375 2.09765625 C9.15029216 3.06094168 6.16348623 3.26233858 2.77734375 3.28515625 C1.33488281 3.30642578 1.33488281 3.30642578 -0.13671875 3.328125 C-2.59765625 3.09765625 -2.59765625 3.09765625 -4.59765625 1.09765625 C-3.59765625 0.09765625 -3.59765625 0.09765625 0 0 Z " fill="#125592" transform="translate(125.59765625,163.90234375)"/>
<path d="M0 0 C0 0.66 0 1.32 0 2 C-3.63 3.98 -7.26 5.96 -11 8 C-11.66 6.35 -12.32 4.7 -13 3 C-4.57142857 -0.42857143 -4.57142857 -0.42857143 0 0 Z " fill="#D4EDF8" transform="translate(117,32)"/>
<path d="M0 0 C0 2.64 0 5.28 0 8 C-2 4.25 -2 4.25 -2 2 C-6.62 2 -11.24 2 -16 2 C-16.33 3.32 -16.66 4.64 -17 6 C-17.33 4.35 -17.66 2.7 -18 1 C-11.97403427 -0.0712828 -6.11090483 -0.09945415 0 0 Z " fill="#D7F0F9" transform="translate(137,167)"/>
<path d="M0 0 C1.485 0.99 1.485 0.99 3 2 C5.33199388 2.07905064 7.66832622 2.08798769 10 2 C8.55214724 6.70552147 8.55214724 6.70552147 6.125 8 C4 8 4 8 1.75 6.875 C0 5 0 5 -0.25 2.3125 C-0.1675 1.549375 -0.085 0.78625 0 0 Z " fill="#CBE5F5" transform="translate(81,225)"/>
<path d="M0 0 C2.24973447 -0.054138 4.49984383 -0.09285491 6.75 -0.125 C8.00296875 -0.14820313 9.2559375 -0.17140625 10.546875 -0.1953125 C13.72820492 -0.01537302 15.36521896 0.31001418 18 2 C12.35590541 3.88136486 5.73055582 3.52814822 0 2 C0 1.34 0 0.68 0 0 Z " fill="#0D4F90" transform="translate(140,164)"/>
<path d="M0 0 C0.33 0 0.66 0 1 0 C1.04254356 1.99954746 1.04080783 4.00041636 1 6 C0 7 0 7 -2.28515625 7.09765625 C-3.65994141 7.08025391 -3.65994141 7.08025391 -5.0625 7.0625 C-5.98160156 7.05347656 -6.90070313 7.04445312 -7.84765625 7.03515625 C-8.55792969 7.02355469 -9.26820313 7.01195312 -10 7 C-7.40266726 4.12438161 -5.78654518 2.75730904 -2 2 C-1.34 1.34 -0.68 0.68 0 0 Z " fill="#EFF9FD" transform="translate(160,225)"/>
<path d="M0 0 C0.99 0.33 1.98 0.66 3 1 C2.6875 3.875 2.6875 3.875 2 7 C-1.8503105 9.56687367 -3.58569763 8.83288724 -8 8 C-8.33 6.68 -8.66 5.36 -9 4 C-8.13375 4.5259375 -8.13375 4.5259375 -7.25 5.0625 C-4.64198224 6.14917407 -3.60582371 5.93065133 -1 5 C-0.67 3.35 -0.34 1.7 0 0 Z " fill="#2C5B88" transform="translate(90,226)"/>
<path d="M0 0 C2.64 0 5.28 0 8 0 C7.67 1.65 7.34 3.3 7 5 C4.36 5 1.72 5 -1 5 C-0.67 3.35 -0.34 1.7 0 0 Z " fill="#CCE2EF" transform="translate(196,218)"/>
<path d="M0 0 C-0.33 0.99 -0.66 1.98 -1 3 C-1.9075 3.28875 -2.815 3.5775 -3.75 3.875 C-7.16544525 4.79225645 -7.16544525 4.79225645 -9.5625 7.5625 C-12.16460587 10.16460587 -13.40873222 10.69217705 -17 11 C-6.62857143 0 -6.62857143 0 0 0 Z " fill="#215E9A" transform="translate(196,74)"/>
<path d="M0 0 C1.06669922 -0.01224609 2.13339844 -0.02449219 3.23242188 -0.03710938 C4.25013672 -0.03904297 5.26785156 -0.04097656 6.31640625 -0.04296875 C7.2504126 -0.04707764 8.18441895 -0.05118652 9.14672852 -0.05541992 C11.4375 0.1875 11.4375 0.1875 13.4375 2.1875 C12.8077124 2.17702637 12.1779248 2.16655273 11.52905273 2.15576172 C8.64440994 2.1138977 5.75983134 2.08807799 2.875 2.0625 C1.3890332 2.03736328 1.3890332 2.03736328 -0.12695312 2.01171875 C-5.68978491 1.97475641 -10.31093075 2.31667449 -15.5625 4.1875 C-15.2325 3.1975 -14.9025 2.2075 -14.5625 1.1875 C-9.80825148 -0.39724951 -4.97853315 0.00301912 0 0 Z " fill="#D2EAF6" transform="translate(208.5625,70.8125)"/>
<path d="M0 0 C0.33 0 0.66 0 1 0 C1.46530864 7.78961124 0.15721701 14.52678392 -2 22 C-2.33 22 -2.66 22 -3 22 C-2.67 16.72 -2.34 11.44 -2 6 C-1.67 6 -1.34 6 -1 6 C-0.67 4.02 -0.34 2.04 0 0 Z " fill="#306EA8" transform="translate(251,108)"/>
<path d="M0 0 C0.66 0.33 1.32 0.66 2 1 C2 1.66 2 2.32 2 3 C2.66 3.33 3.32 3.66 4 4 C3.38125 4.103125 2.7625 4.20625 2.125 4.3125 C-0.36526484 4.87525373 -0.36526484 4.87525373 -2 8 C-3.32 8 -4.64 8 -6 8 C-5.67 6.68 -5.34 5.36 -5 4 C-4.34 4 -3.68 4 -3 4 C-2.67 3.01 -2.34 2.02 -2 1 C-1.34 0.67 -0.68 0.34 0 0 Z " fill="#0D5699" transform="translate(162,28)"/>
<path d="M0 0 C0.598125 0.226875 1.19625 0.45375 1.8125 0.6875 C1.173125 1.161875 0.53375 1.63625 -0.125 2.125 C-2.74360832 5.37842245 -2.74066545 7.68688817 -2.9140625 11.76171875 C-3.00429687 12.39722656 -3.09453125 13.03273437 -3.1875 13.6875 C-4.1775 14.1825 -4.1775 14.1825 -5.1875 14.6875 C-5.26857583 12.75068839 -5.32672475 10.8129066 -5.375 8.875 C-5.40980469 7.79605469 -5.44460937 6.71710938 -5.48046875 5.60546875 C-5.1875 2.6875 -5.1875 2.6875 -3.8125 0.78125 C-2.1875 -0.3125 -2.1875 -0.3125 0 0 Z " fill="#1E5486" transform="translate(168.1875,216.3125)"/>
<path d="M0 0 C-2.72478774 3.36591427 -6.06856792 4.44226276 -10 6 C-10 4.68 -10 3.36 -10 2 C-6.47120856 -0.92385576 -4.34741868 -1.36633159 0 0 Z " fill="#155490" transform="translate(105,34)"/>
<path d="M0 0 C0.33 0.99 0.66 1.98 1 3 C-0.9375 5.6875 -0.9375 5.6875 -3 8 C-0.03 8.495 -0.03 8.495 3 9 C2.34 9.66 1.68 10.32 1 11 C-2.625 10.625 -2.625 10.625 -6 10 C-4.6302836 6.00499382 -2.74277578 3.19990508 0 0 Z " fill="#D5ECF7" transform="translate(159,178)"/>
<path d="M0 0 C0.97066406 -0.00515625 1.94132813 -0.0103125 2.94140625 -0.015625 C5.4375 0.25 5.4375 0.25 7.4375 2.25 C6.7775 2.25 6.1175 2.25 5.4375 2.25 C5.4375 3.9 5.4375 5.55 5.4375 7.25 C5.1075 7.25 4.7775 7.25 4.4375 7.25 C4.4375 5.6 4.4375 3.95 4.4375 2.25 C0.1475 2.25 -4.1425 2.25 -8.5625 2.25 C-5.19898987 0.00765991 -3.93939944 -0.02098215 0 0 Z " fill="#1E5F9C" transform="translate(132.5625,59.75)"/>
<path d="M0 0 C1.65 0 3.3 0 5 0 C5 1.98 5 3.96 5 6 C5.66 6.33 6.32 6.66 7 7 C4.69 7 2.38 7 0 7 C0 4.69 0 2.38 0 0 Z " fill="#888888" transform="translate(83,268)"/>
<path d="M0 0 C2.64 0.66 5.28 1.32 8 2 C8 3.32 8 4.64 8 6 C3.545 5.01 3.545 5.01 -1 4 C-0.67 2.68 -0.34 1.36 0 0 Z " fill="#25619A" transform="translate(108,195)"/>
<path d="M0 0 C0.66 0.33 1.32 0.66 2 1 C2 1.66 2 2.32 2 3 C2.31478446 4.33783393 2.64587656 5.67203709 3 7 C1.35 7.33 -0.3 7.66 -2 8 C-2.6875 6.25 -2.6875 6.25 -3 4 C-1.5625 1.75 -1.5625 1.75 0 0 Z " fill="#8B8B8B" transform="translate(186,267)"/>
<path d="M0 0 C0.33 0 0.66 0 1 0 C1.1875 2.875 1.1875 2.875 1 6 C-2.45245824 8.30163882 -3.94738713 8.34490322 -8 8 C-8.66 7.34 -9.32 6.68 -10 6 C-10 5.01 -10 4.02 -10 3 C-9.34 3 -8.68 3 -8 3 C-7.67 3.66 -7.34 4.32 -7 5 C-5.35 5 -3.7 5 -2 5 C-1.34 3.35 -0.68 1.7 0 0 Z " fill="#225383" transform="translate(203,227)"/>
<path d="M0 0 C0 5.94 0 11.88 0 18 C-0.33 18 -0.66 18 -1 18 C-1 13.71 -1 9.42 -1 5 C-2.65 5 -4.3 5 -6 5 C-6 4.34 -6 3.68 -6 3 C-1.5 0 -1.5 0 0 0 Z " fill="#154F85" transform="translate(133,216)"/>
<path d="M0 0 C6.6 0.33 13.2 0.66 20 1 C20 1.33 20 1.66 20 2 C18.22882813 1.96519531 18.22882813 1.96519531 16.421875 1.9296875 C14.86458967 1.91092503 13.30729748 1.89272534 11.75 1.875 C10.58404297 1.84986328 10.58404297 1.84986328 9.39453125 1.82421875 C3.91693064 1.74031699 3.91693064 1.74031699 -1 4 C-0.67 2.68 -0.34 1.36 0 0 Z " fill="#CEE6F4" transform="translate(117,61)"/>
<path d="M0 0 C0.66 0.99 1.32 1.98 2 3 C3.32 3 4.64 3 6 3 C6.66 2.01 7.32 1.02 8 0 C8.625 1.875 8.625 1.875 9 4 C7 6 7 6 4 6.25 C1 6 1 6 -1 4 C-0.625 1.875 -0.625 1.875 0 0 Z " fill="#2D608F" transform="translate(165,229)"/>
<path d="M0 0 C1.11375 0.185625 1.11375 0.185625 2.25 0.375 C-0.225 3.84 -0.225 3.84 -2.75 7.375 C-4.07 7.045 -5.39 6.715 -6.75 6.375 C-3.42692308 0.46730769 -3.42692308 0.46730769 0 0 Z " fill="#285E96" transform="translate(69.75,59.625)"/>
<path d="M0 0 C2.64 0.33 5.28 0.66 8 1 C8.33 1.99 8.66 2.98 9 4 C11.97 4.495 11.97 4.495 15 5 C14.67 5.66 14.34 6.32 14 7 C9.0276578 5.50829734 4.58154261 3.39542583 0 1 C0 0.67 0 0.34 0 0 Z " fill="#175A96" transform="translate(98,114)"/>
<path d="M0 0 C1.32 0.66 2.64 1.32 4 2 C3.67 3.32 3.34 4.64 3 6 C-2.53846154 6.36923077 -2.53846154 6.36923077 -4.875 4.5 C-5.24625 4.005 -5.6175 3.51 -6 3 C-4.68 3 -3.36 3 -2 3 C-1.67 2.34 -1.34 1.68 -1 1 C-1 1.99 -1 2.98 -1 4 C-0.67 2.68 -0.34 1.36 0 0 Z " fill="#185B9E" transform="translate(181,49)"/>
<path d="M0 0 C0.66 0 1.32 0 2 0 C3.125 5.75 3.125 5.75 2 8 C1.34 8 0.68 8 0 8 C0 7.34 0 6.68 0 6 C-0.99 6 -1.98 6 -3 6 C-1.125 1.125 -1.125 1.125 0 0 Z " fill="#7D7D7D" transform="translate(167,267)"/>
<path d="M0 0 C0.66 1.32 1.32 2.64 2 4 C0.02 4.99 -1.96 5.98 -4 7 C-4.66 6.01 -5.32 5.02 -6 4 C-4.02 2.68 -2.04 1.36 0 0 Z " fill="#1F5F99" transform="translate(93,37)"/>
<path d="M0 0 C1.98 0.495 1.98 0.495 4 1 C3.67 2.65 3.34 4.3 3 6 C1.68 5.67 0.36 5.34 -1 5 C-0.67 3.35 -0.34 1.7 0 0 Z " fill="#929292" transform="translate(110,269)"/>
<path d="M0 0 C3.3 0 6.6 0 10 0 C5.25 4 5.25 4 3 4 C2.67 5.32 2.34 6.64 2 8 C1.34 7.67 0.68 7.34 0 7 C0.99 5.02 1.98 3.04 3 1 C2.01 0.67 1.02 0.34 0 0 Z " fill="#7B7B7B" transform="translate(171,267)"/>
<path d="M0 0 C1.32 0 2.64 0 4 0 C4 4.29 4 8.58 4 13 C2.06622327 10.09933491 1.72492386 9.20923972 1.4375 5.9375 C1.25413459 2.22018139 1.25413459 2.22018139 0 0 Z " fill="#E8F9FE" transform="translate(127,221)"/>
<path d="M0 0 C3.465 1.485 3.465 1.485 7 3 C7 3.66 7 4.32 7 5 C5.25 5.6875 5.25 5.6875 3 6 C0.75 4.5625 0.75 4.5625 -1 3 C-0.67 2.01 -0.34 1.02 0 0 Z " fill="#215E99" transform="translate(113,186)"/>
<path d="M0 0 C1.9375 0.625 1.9375 0.625 4 2 C4.75 5.125 4.75 5.125 5 8 C2 7 2 7 0.3125 3.9375 C-0.120625 2.968125 -0.55375 1.99875 -1 1 C-0.67 0.67 -0.34 0.34 0 0 Z " fill="#135593" transform="translate(155,46)"/>
<path d="M0 0 C0.33 0.66 0.66 1.32 1 2 C3.02463255 2.65213292 3.02463255 2.65213292 5 3 C4.67 4.32 4.34 5.64 4 7 C2.68 7 1.36 7 0 7 C0 4.69 0 2.38 0 0 Z " fill="#7F7E7F" transform="translate(190,268)"/>
<path d="M0 0 C0.66 0 1.32 0 2 0 C2 0.66 2 1.32 2 2 C2.99 2.33 3.98 2.66 5 3 C5 4.65 5 6.3 5 8 C4.67 6.68 4.34 5.36 4 4 C3.34 4 2.68 4 2 4 C2 5.32 2 6.64 2 8 C1.34 8 0.68 8 0 8 C0 5.36 0 2.72 0 0 Z " fill="#7A7A7A" transform="translate(70,267)"/>
<path d="M0 0 C0.99 0 1.98 0 3 0 C3 2.64 3 5.28 3 8 C2.01 8.33 1.02 8.66 0 9 C0 6.03 0 3.06 0 0 Z " fill="#ACCFE7" transform="translate(108,221)"/>
<path d="M0 0 C0.391875 0.45375 0.78375 0.9075 1.1875 1.375 C4.05230022 3.94344158 7.39540204 4.79846735 11 6 C11 6.66 11 7.32 11 8 C5.06 6.515 5.06 6.515 -1 5 C-0.67 3.35 -0.34 1.7 0 0 Z " fill="#CFE7F5" transform="translate(166,162)"/>
<path d="M0 0 C-1.65 0.66 -3.3 1.32 -5 2 C-4.67 2.99 -4.34 3.98 -4 5 C-6.4375 4.1875 -6.4375 4.1875 -9 3 C-9.33 2.01 -9.66 1.02 -10 0 C-6.33694766 -0.74926071 -3.57644848 -1.2380014 0 0 Z " fill="#DFF4FB" transform="translate(131,30)"/>
<path d="M0 0 C0.99 0.33 1.98 0.66 3 1 C3 3.64 3 6.28 3 9 C1.02 9.99 1.02 9.99 -1 11 C-0.67 7.37 -0.34 3.74 0 0 Z " fill="#B2D3E9" transform="translate(93,221)"/>
<path d="M0 0 C0 1.98 0 3.96 0 6 C-0.99 6 -1.98 6 -3 6 C-3.0825 5.21625 -3.165 4.4325 -3.25 3.625 C-3.72806339 0.85250896 -3.72806339 0.85250896 -6.0625 -0.3125 C-6.701875 -0.539375 -7.34125 -0.76625 -8 -1 C-4.59745511 -2.2151946 -3.06748874 -1.86240388 0 0 Z " fill="#4373A0" transform="translate(205,225)"/>
<path d="M0 0 C0 3.51716303 -0.82445585 4.37121748 -3 7 C-2.34 7 -1.68 7 -1 7 C-1 7.66 -1 8.32 -1 9 C-2.98 8.34 -4.96 7.68 -7 7 C-4.66666667 4.66666667 -2.33333333 2.33333333 0 0 Z " fill="#D6EFFA" transform="translate(106,44)"/>
<path d="M0 0 C1.98 0.66 3.96 1.32 6 2 C5.67 3.32 5.34 4.64 5 6 C3.02 5.01 1.04 4.02 -1 3 C-0.67 2.01 -0.34 1.02 0 0 Z " fill="#185594" transform="translate(123,34)"/>
<path d="M0 0 C5.75 0.75 5.75 0.75 8 3 C7.01 4.485 7.01 4.485 6 6 C3.96166576 4.7260411 1.96147874 3.38938077 0 2 C0 1.34 0 0.68 0 0 Z " fill="#D0EAF7" transform="translate(162,32)"/>
<path d="M0 0 C0.33 2.31 0.66 4.62 1 7 C-0.32 6.67 -1.64 6.34 -3 6 C-3 5.34 -3 4.68 -3 4 C-3.66 4 -4.32 4 -5 4 C-4.67 3.01 -4.34 2.02 -4 1 C-1 0 -1 0 0 0 Z " fill="#9F9F9F" transform="translate(107,268)"/>
<path d="M0 0 C0.66 1.32 1.32 2.64 2 4 C0 6 0 6 -3.125 6.125 C-4.548125 6.063125 -4.548125 6.063125 -6 6 C-6.33 5.01 -6.66 4.02 -7 3 C-5.02 3 -3.04 3 -1 3 C-0.67 2.01 -0.34 1.02 0 0 Z " fill="#2C5E8B" transform="translate(105,229)"/>
<path d="M0 0 C-1.0975223 2.99324263 -1.67682892 3.84610901 -4.625 5.25 C-5.40875 5.4975 -6.1925 5.745 -7 6 C-7.33 5.34 -7.66 4.68 -8 4 C-7.34 4 -6.68 4 -6 4 C-5.67 3.01 -5.34 2.02 -5 1 C-2 0 -2 0 0 0 Z " fill="#135798" transform="translate(198,180)"/>
<path d="M0 0 C1.98 0.495 1.98 0.495 4 1 C3.34 2.98 2.68 4.96 2 7 C1.01 6.34 0.02 5.68 -1 5 C-0.67 3.35 -0.34 1.7 0 0 Z " fill="#F6F6F6" transform="translate(170,267)"/>
<path d="M0 0 C0.33 1.32 0.66 2.64 1 4 C2.65 3.67 4.3 3.34 6 3 C5.67 3.66 5.34 4.32 5 5 C4.34 5 3.68 5 3 5 C3 5.99 3 6.98 3 8 C2.34 8 1.68 8 1 8 C0.67 8.66 0.34 9.32 0 10 C0 6.7 0 3.4 0 0 Z " fill="#D8EBF3" transform="translate(192,222)"/>
<path d="M0 0 C1.98 0.66 3.96 1.32 6 2 C4.35 3.32 2.7 4.64 1 6 C0.01 5.34 -0.98 4.68 -2 4 C-1.34 4 -0.68 4 0 4 C0 2.68 0 1.36 0 0 Z " fill="#085299" transform="translate(94,171)"/>
<path d="M0 0 C2.48660455 0.3878678 3.72345219 0.70962479 5.484375 2.55859375 C5.90203125 3.17863281 6.3196875 3.79867187 6.75 4.4375 C7.17796875 5.05496094 7.6059375 5.67242187 8.046875 6.30859375 C9 8 9 8 9 10 C8.34 10 7.68 10 7 10 C5.65668346 8.00669158 4.32405988 6.00615134 3 4 C2.01 3.34 1.02 2.68 0 2 C0 1.34 0 0.68 0 0 Z " fill="#24619A" transform="translate(154,113)"/>
<path d="M0 0 C1.98 0.495 1.98 0.495 4 1 C4 1.99 4 2.98 4 4 C4.66 4 5.32 4 6 4 C6 4.66 6 5.32 6 6 C4.68 6 3.36 6 2 6 C0.25 4 0.25 4 -1 2 C-0.67 1.34 -0.34 0.68 0 0 Z " fill="#075097" transform="translate(116,28)"/>
<path d="M0 0 C2.31 0 4.62 0 7 0 C7 0.33 7 0.66 7 1 C6.05125 1.268125 5.1025 1.53625 4.125 1.8125 C0.74732727 2.74986588 0.74732727 2.74986588 -1 6 C-1.99 6 -2.98 6 -4 6 C-4 5.34 -4 4.68 -4 4 C-3.34 4 -2.68 4 -2 4 C-1.34 2.68 -0.68 1.36 0 0 Z " fill="#DEEFF8" transform="translate(112,215)"/>
<path d="M0 0 C0 0.99 0 1.98 0 3 C0.66 3 1.32 3 2 3 C2 3.66 2 4.32 2 5 C-1.68754757 4.50168276 -3.60490662 3.89932357 -6 1 C-3.92446352 0.4465236 -2.15634036 0 0 0 Z " fill="#035196" transform="translate(184,172)"/>
<path d="M0 0 C0.66 0.33 1.32 0.66 2 1 C1.175 1.78375 0.35 2.5675 -0.5 3.375 C-3.22988506 5.63721264 -3.22988506 5.63721264 -3 8 C-4.32 7.34 -5.64 6.68 -7 6 C-4.74259377 3.66475218 -2.7194239 1.81294927 0 0 Z " fill="#D5EFFA" transform="translate(96,39)"/>
<path d="M0 0 C1.1484375 1.734375 1.1484375 1.734375 2 4 C1.1015625 6.140625 1.1015625 6.140625 -0.375 8.25 C-0.85710937 8.95640625 -1.33921875 9.6628125 -1.8359375 10.390625 C-2.22007812 10.92171875 -2.60421875 11.4528125 -3 12 C-4 10 -4 10 -3.22265625 7.6171875 C-2.83980469 6.71226562 -2.45695313 5.80734375 -2.0625 4.875 C-1.68222656 3.96492188 -1.30195313 3.05484375 -0.91015625 2.1171875 C-0.60980469 1.41851562 -0.30945313 0.71984375 0 0 Z " fill="#D5ECF6" transform="translate(250,124)"/>
<path d="M0 0 C0.99 0.33 1.98 0.66 3 1 C2.625 3.9375 2.625 3.9375 2 7 C1.01 7.495 1.01 7.495 0 8 C-0.66 7.34 -1.32 6.68 -2 6 C-1.67 5.195625 -1.34 4.39125 -1 3.5625 C0.06059041 1.30318875 0.06059041 1.30318875 0 0 Z " fill="#336397" transform="translate(90,226)"/>
<path d="M0 0 C0 4 0 4 -1 7 C-2.37562854 5.71034824 -3.70766393 4.37310707 -5 3 C-5 2.34 -5 1.68 -5 1 C-2 0 -2 0 0 0 Z " fill="#DEF4FC" transform="translate(105,173)"/>
<path d="M0 0 C0.99 0.66 1.98 1.32 3 2 C2.34 3.32 1.68 4.64 1 6 C0.01 6 -0.98 6 -2 6 C-1.125 1.125 -1.125 1.125 0 0 Z " fill="#1F588D" transform="translate(114,61)"/>
<path d="M0 0 C0.66 0 1.32 0 2 0 C1.67 1.98 1.34 3.96 1 6 C0.01 6 -0.98 6 -2 6 C-1.125 1.125 -1.125 1.125 0 0 Z " fill="#135191" transform="translate(119,50)"/>
<path d="M0 0 C-1.485 2.475 -1.485 2.475 -3 5 C-3.66 4.67 -4.32 4.34 -5 4 C-5.625 1.9375 -5.625 1.9375 -6 0 C-3 -1 -3 -1 0 0 Z " fill="#E1F2FA" transform="translate(110,35)"/>
<path d="M0 0 C0.78375 0.04125 1.5675 0.0825 2.375 0.125 C1.570625 0.74375 0.76625 1.3625 -0.0625 2 C-2.66374519 3.86664041 -2.66374519 3.86664041 -3.625 6.125 C-4.285 6.125 -4.945 6.125 -5.625 6.125 C-4.86443086 2.32215429 -4.27658992 0.20364714 0 0 Z " fill="#1F5485" transform="translate(153.625,215.875)"/>
<path d="M0 0 C0.66 0.33 1.32 0.66 2 1 C1.67 1.99 1.34 2.98 1 4 C-0.65 4 -2.3 4 -4 4 C-4.33 3.34 -4.66 2.68 -5 2 C-2.625 0.9375 -2.625 0.9375 0 0 Z " fill="#0B5094" transform="translate(123,189)"/>
<path d="M0 0 C2.475 0.99 2.475 0.99 5 2 C3.35 3.32 1.7 4.64 0 6 C0 5.34 0 4.68 0 4 C-0.66 3.67 -1.32 3.34 -2 3 C-1.34 2.01 -0.68 1.02 0 0 Z " fill="#23629B" transform="translate(178,174)"/>
<path d="M0 0 C1.32 0.33 2.64 0.66 4 1 C2.63016497 4.16115776 2.0109362 4.9927092 -1 7 C-1 6.01 -1 5.02 -1 4 C-0.34 4 0.32 4 1 4 C0.67 2.68 0.34 1.36 0 0 Z " fill="#D6F0FC" transform="translate(174,173)"/>
<path d="M0 0 C1.875 0.125 1.875 0.125 4 1 C5.25 4.0625 5.25 4.0625 6 7 C5.34 7 4.68 7 4 7 C4 6.01 4 5.02 4 4 C2.68 3.34 1.36 2.68 0 2 C0 1.34 0 0.68 0 0 Z " fill="#075095" transform="translate(176,46)"/>
<path d="M0 0 C1.32 0 2.64 0 4 0 C3.67 1.32 3.34 2.64 3 4 C1.68 3.67 0.36 3.34 -1 3 C-0.67 2.01 -0.34 1.02 0 0 Z " fill="#EAFBFE" transform="translate(85,229)"/>
<path d="M0 0 C-1 2 -1 2 -4.0625 3.125 C-5.5165625 3.558125 -5.5165625 3.558125 -7 4 C-7.33 3.01 -7.66 2.02 -8 1 C-5.29120665 -0.35439668 -2.99066732 -0.06501451 0 0 Z " fill="#235C8E" transform="translate(90,216)"/>
<path d="M0 0 C0.99 0.99 1.98 1.98 3 3 C-1.455 3.495 -1.455 3.495 -6 4 C-4.60804085 1.2160817 -2.84424221 1.02101003 0 0 Z " fill="#DEF6FD" transform="translate(158,195)"/>
<path d="M0 0 C-0.33 1.98 -0.66 3.96 -1 6 C-3 4.625 -3 4.625 -5 3 C-5 2.34 -5 1.68 -5 1 C-2 0 -2 0 0 0 Z " fill="#DAF1FB" transform="translate(166,190)"/>
<path d="M0 0 C2.4375 0.8125 2.4375 0.8125 5 2 C5.33 2.99 5.66 3.98 6 5 C4.35 4.67 2.7 4.34 1 4 C0.67 2.68 0.34 1.36 0 0 Z " fill="#0F508E" transform="translate(94,189)"/>
<path d="M0 0 C0.99 0 1.98 0 3 0 C2.34 1.32 1.68 2.64 1 4 C0.01 4 -0.98 4 -2 4 C-2.33 4.66 -2.66 5.32 -3 6 C-2.42655063 3.13275314 -2.1385485 2.1385485 0 0 Z " fill="#0D518C" transform="translate(71,56)"/>
<path d="M0 0 C1.98 0 3.96 0 6 0 C6 3 6 3 5 5 C2.53721199 3.768606 1.57502313 2.21935077 0 0 Z " fill="#23609B" transform="translate(185,41)"/>
<path d="M0 0 C1.32 0.99 2.64 1.98 4 3 C3.01 4.485 3.01 4.485 2 6 C0.68 5.01 -0.64 4.02 -2 3 C-1.34 2.01 -0.68 1.02 0 0 Z " fill="#23639F" transform="translate(161,33)"/>
</svg>
